<?xml version="1.0" standalone="no"?>
<!DOCTYPE svg PUBLIC "-//W3C//DTD SVG 20010904//EN"
 "http://www.w3.org/TR/2001/REC-SVG-20010904/DTD/svg10.dtd">
<svg version="1.0" xmlns="http://www.w3.org/2000/svg"
 width="700.000000pt" height="700.000000pt" viewBox="0 0 700.000000 700.000000"
 preserveAspectRatio="xMidYMid meet">
<metadata>
Created by potrace 1.11, written by Peter Selinger 2001-2013
</metadata>
<g transform="translate(0.000000,700.000000) scale(0.100000,-0.100000)"
fill="#000000" stroke="none">
<path d="M3299 6996 c-2 -2 -42 -6 -89 -10 -100 -7 -225 -22 -295 -36 -27 -5
-61 -12 -75 -14 -408 -75 -828 -241 -1205 -476 -211 -132 -448 -324 -625 -507
-147 -151 -163 -169 -293 -333 -116 -147 -284 -420 -377 -617 -123 -257 -227
-576 -276 -838 -9 -49 -18 -99 -20 -110 -2 -11 -7 -42 -10 -70 -3 -27 -7 -61
-10 -75 -12 -71 -19 -217 -19 -405 0 -185 10 -398 19 -414 2 -3 6 -33 10 -66
3 -33 8 -71 11 -85 3 -14 7 -40 10 -59 2 -18 7 -41 9 -50 3 -9 7 -27 10 -41
16 -93 98 -392 125 -455 5 -11 14 -36 21 -55 7 -19 18 -48 25 -65 8 -16 23
-55 35 -85 27 -69 139 -292 193 -385 149 -256 362 -530 573 -736 87 -85 122
-117 234 -213 79 -68 418 -306 436 -306 2 0 22 -11 43 -24 44 -28 270 -143
346 -175 79 -35 87 -38 135 -56 242 -93 590 -182 782 -201 35 -3 66 -8 69 -9
29 -18 532 -26 709 -12 111 9 120 10 310 43 463 79 936 269 1335 537 59 39
245 176 255 187 3 3 50 44 105 92 674 583 1099 1421 1182 2328 14 163 7 624
-12 715 -2 11 -7 41 -10 67 -5 40 -27 164 -50 283 -3 17 -17 73 -31 125 -122
454 -320 857 -601 1228 -36 48 -69 89 -72 92 -3 3 -38 43 -78 90 -77 92 -242
255 -363 361 -377 328 -871 587 -1380 723 -170 46 -286 67 -560 101 -51 7
-525 16 -531 11z m456 -590 c113 -11 297 -40 380 -60 11 -2 40 -9 65 -15 227
-52 533 -176 770 -312 58 -33 241 -154 275 -181 174 -141 229 -190 336 -299
268 -274 448 -544 617 -930 82 -185 156 -469 197 -759 32 -222 23 -587 -20
-835 -22 -123 -24 -133 -51 -239 -126 -494 -383 -950 -741 -1313 -98 -98 -135
-133 -229 -213 -196 -167 -503 -350 -764 -455 -95 -38 -253 -92 -290 -100 -8
-2 -52 -13 -97 -24 -98 -25 -220 -49 -288 -57 -27 -3 -56 -7 -63 -9 -69 -23
-569 -23 -702 -1 -14 2 -47 7 -75 11 -349 46 -776 200 -1089 393 -218 134
-356 243 -542 427 -496 491 -798 1143 -851 1835 -12 151 -4 563 11 589 2 3 6
29 10 56 3 28 8 61 11 75 2 13 7 41 10 61 3 20 21 98 40 173 104 408 310 812
583 1141 67 81 262 281 338 345 289 248 629 439 997 561 81 27 158 51 170 53
12 2 51 11 87 20 112 26 276 51 405 62 39 3 71 7 72 8 5 5 366 -2 428 -8z"/>
<path d="M3532 4939 c-79 -10 -200 -43 -277 -76 -89 -39 -241 -142 -312 -212
-34 -33 -64 -61 -65 -61 -2 0 -4 22 -5 49 -2 110 -54 195 -143 233 -48 21
-189 29 -264 15 -80 -15 -153 -86 -178 -171 -9 -30 -12 -352 -12 -1241 0
-1137 1 -1203 18 -1257 23 -72 71 -122 140 -144 59 -20 209 -23 271 -6 88 25
154 101 169 194 3 20 6 339 7 710 1 370 5 698 9 728 18 118 22 137 41 205 71
238 216 410 404 475 165 58 393 44 537 -32 136 -72 220 -223 244 -438 4 -36 8
-420 8 -855 2 -755 3 -792 21 -843 24 -66 86 -126 147 -143 57 -16 190 -16
257 1 94 22 154 95 168 200 9 65 8 1536 -1 1655 -41 540 -316 886 -791 994
-95 21 -293 31 -393 20z"/>
</g>
</svg>
