<svg xmlns="http://www.w3.org/2000/svg" width="145" height="36">
    <path fill="#FFF" fill-rule="evenodd" d="M142.442 23.077c-1.494 1.402-3.57 2.174-5.843 2.174-4.182 0-8.401-2.712-8.401-8.77 0-6.106 4.219-8.839 8.401-8.839 4.181 0 8.401 2.733 8.401 8.839 0 2.746-.885 5.027-2.558 6.596zm-5.843-12.779c-3.224 0-5.227 2.356-5.227 6.149 0 3.813 2.003 6.183 5.227 6.183s5.227-2.37 5.227-6.183c0-3.793-2.003-6.149-5.227-6.149zm-14.065-4.951a2.017 2.017 0 0 1-2.007-2.023c0-1.134.9-2.057 2.007-2.057 1.088 0 2.007.942 2.007 2.057 0 1.097-.919 2.023-2.007 2.023zm-5.565 18.221c0 .963-.435 1.412-1.368 1.412H104.8c-1.173 0-1.873-.693-1.873-1.853v-.339c0-.714.473-1.288.917-1.769 1.546-1.678 3.094-3.427 4.591-5.118a332.324 332.324 0 0 1 4.553-5.077v-.085H104.8c-.956 0-1.402-.449-1.402-1.413 0-.902.484-1.379 1.402-1.379h10.128c1.138 0 1.873.728 1.873 1.854v.271c0 .794-.667 1.552-.955 1.841-1.137 1.22-2.313 2.489-3.501 3.77-2.011 2.168-4.089 4.41-6.063 6.506h8.411c1.221 0 2.276 0 2.276 1.379zm-18.428 1.48c-1.279 0-2.175-.938-2.322-2.375-1.028 1.246-2.739 2.578-5.35 2.578-3.652 0-6.011-2.071-6.011-5.278 0-3.412 2.729-5.617 6.954-5.617 2.1 0 3.235.43 4.064.744l.186.071v-1.268c0-2.551-1.21-3.639-4.049-3.639-1.828 0-3.516.837-4.516 2.24l-.055.077-.094-.013c-.984-.135-1.548-.674-1.548-1.479 0-1.85 2.784-3.413 6.079-3.413 4.769 0 7.29 2.364 7.29 6.838v6.714c0 1.632 1.002 2.115 1.309 2.224l.153.055-.06.152a2.19 2.19 0 0 1-2.03 1.389zm-2.479-7.379c-.963-.417-2.445-.895-4.183-.895-2.435 0-3.948 1.174-3.948 3.064 0 1.737 1.338 2.859 3.409 2.859 2.648 0 4.722-1.971 4.722-4.487v-.541zM79.63 24.98h-.201c-.988 0-1.469-.462-1.469-1.413v-1.091c-.863 1.281-2.876 2.776-5.126 2.776-1.936 0-3.438-.516-4.464-1.534-1.161-1.152-1.749-2.982-1.749-5.44V9.394c0-.977.442-1.413 1.435-1.413h.235c.939 0 1.436.488 1.436 1.413v8.714c0 3.062 1.244 4.488 3.915 4.488 3.187 0 4.318-3.039 4.318-5.641V9.394c0-.964.467-1.413 1.469-1.413h.235c.983 0 1.402.422 1.402 1.413v14.173c0 .991-.429 1.413-1.436 1.413zm-25.539-2.588h2.491c4.928 0 7.324 1.505 7.324 4.6 0 3.139-3.267 5.37-8.126 5.55h-.814c-3.89 0-7.054-1.805-7.054-4.024 0-1.001.555-1.728 1.413-1.852l.112-.016.051.102c.269.543.663 1.026 1.204 1.475 1.174.968 2.892 1.523 4.712 1.523h.235c2.518 0 5.228-.799 5.228-2.554 0-1.458-1.494-2.08-4.992-2.08-4.298 0-6.786-.492-6.786-3.007 0-1.332.682-2.223 2.265-2.938-1.865-1.151-2.736-2.833-2.736-5.268 0-4.301 3.476-6.227 6.92-6.227 2.164 0 3.839 1.139 4.564 1.883.955-.719 1.101-2.101 1.101-2.878v-.158h.156c1.552 0 2.479 1.08 2.479 2.125 0 1.469-1.425 2.2-2.405 2.53.336.59.655 1.719.655 2.895 0 1.932-.694 3.518-2.009 4.586-1.186.963-2.802 1.472-4.675 1.472-.237 0-.494-.017-.741-.033-.257-.017-.522-.035-.774-.035-1.057 0-1.794.632-1.794 1.199 0 .983 1.251 1.13 1.996 1.13zm1.313-4.679c2.387 0 3.814-1.412 3.814-3.776s-1.427-3.775-3.814-3.775c-2.409 0-3.848 1.411-3.848 3.775s1.439 3.776 3.848 3.776zM42.55 5.347a2.018 2.018 0 0 1-2.007-2.023c0-1.134.901-2.057 2.007-2.057 1.088 0 2.008.942 2.008 2.057 0 1.097-.92 2.023-2.008 2.023zm-15.38 18.36l-.316-3.029c-.567-5.406-1.218-11.608-1.241-11.815a10.942 10.942 0 0 0-6.084-8.64 9.994 9.994 0 0 1 2.102-.224c5.11 0 9.394 3.853 9.967 8.961.069.617 1.411 13.451 1.674 16.004a12.563 12.563 0 0 1-6.102-1.257zm-.016 8.135a12.548 12.548 0 0 1-7.779-2.241l-.694-6.849a14410.3 14410.3 0 0 0-1.414-13.889A10.947 10.947 0 0 0 11.696.489a9.983 9.983 0 0 1 3.095-.49c5.11 0 9.393 3.853 9.966 8.961.018.155 2.066 19.677 2.397 22.882zm-8 4.145a12.567 12.567 0 0 1-9.216-3.406 12.747 12.747 0 0 1-4.001-8.361c-.02-.267-.965-9.788-1.754-17.728l-.041-.412C3.913 3.773 2.474 2.34.389 2.34c-.131 0-.26.006-.389.02A9.922 9.922 0 0 1 6.445-.001c5.11 0 9.394 3.853 9.967 8.961.049.446 2.392 23.537 2.742 27.027zm23.295-28.04h.203c.952 0 1.435.476 1.435 1.413v14.174c0 .973-.469 1.446-1.435 1.446h-.203c-.966 0-1.435-.473-1.435-1.446V9.36c0-.937.483-1.413 1.435-1.413zm79.984 0h.202c.952 0 1.436.476 1.436 1.413v14.174c0 .973-.471 1.446-1.436 1.446h-.202c-.966 0-1.436-.473-1.436-1.446V9.36c0-.937.484-1.413 1.436-1.413z" opacity=".702"/>
</svg>
