<svg xmlns="http://www.w3.org/2000/svg" viewBox="0 0 26.04 26.83"><defs><style>.cls-1{fill:#2cafe5;}.cls-2{fill:#4c69aa;}.cls-3{fill:#2e2e73;}</style></defs><title>iguazio-logo</title><g id="Layer_2" data-name="Layer 2"><g id="Layer_1-2" data-name="Layer 1"><path class="cls-1" d="M15.15,4.77c.15,1.52.51,4.93.53,5.17a9.6,9.6,0,0,0,9.57,8.86q.4,0,.78,0s-1.23-11.69-1.26-12A7.67,7.67,0,0,0,11.14,2.91a2.44,2.44,0,0,1,4,1.86"/><path class="cls-2" d="M10.13,4.77c.15,1.52,1,9.93,1.06,10.18a9.6,9.6,0,0,0,9.58,8.86q.39,0,.78,0s-1.76-16.69-1.79-17A7.67,7.67,0,0,0,6.12,2.91a2.44,2.44,0,0,1,4,1.86"/><path class="cls-3" d="M4,4.77C4.17,6.29,5.31,17.72,5.33,18a9.6,9.6,0,0,0,9.58,8.86c.26,0,.52,0,.78,0,0,0-2-19.71-2-20A7.67,7.67,0,0,0,0,2.91a2.43,2.43,0,0,1,1.58-.58A2.42,2.42,0,0,1,4,4.77"/></g></g></svg>